inDegrees=no
num_controls=7
num_derivatives=13
num_iterations=105
num_multipliers=7
num_parameters=0
num_slacks=7
num_states=26
objective=0.431095
objective_accelerations=0.050037
objective_balance=0.006735
objective_effort=0.031062
objective_height=0.342099
objective_ligament=0.001162
solver_duration=1418.097627
status=Solve_Succeeded
success=true
DataType=double
version=3
OpenSimVersion=4.5
endheader
time	/jointset/ground_pelvis/pelvis_tilt/value	/jointset/ground_pelvis/pelvis_tx/value	/jointset/ground_pelvis/pelvis_ty/value	/jointset/hip_l/hip_flexion_l/value	/jointset/hip_l/hip_adduction_l/value	/jointset/hip_l/hip_rotation_l/value	/jointset/back/lumbar_extension/value	/jointset/patellofemoral_l/patellar_flexion_l/value	/jointset/knee_l/knee_flexion_l/value	/jointset/knee_l/knee_adduction_l/value	/jointset/knee_l/knee_rotation_l/value	/jointset/ankle_l/ankle_angle_l/value	/jointset/subtalar_l/subtalar_angle_l/value	/jointset/ground_pelvis/pelvis_tilt/speed	/jointset/ground_pelvis/pelvis_tx/speed	/jointset/ground_pelvis/pelvis_ty/speed	/jointset/hip_l/hip_flexion_l/speed	/jointset/hip_l/hip_adduction_l/speed	/jointset/hip_l/hip_rotation_l/speed	/jointset/back/lumbar_extension/speed	/jointset/patellofemoral_l/patellar_flexion_l/speed	/jointset/knee_l/knee_flexion_l/speed	/jointset/knee_l/knee_adduction_l/speed	/jointset/knee_l/knee_rotation_l/speed	/jointset/ankle_l/ankle_angle_l/speed	/jointset/subtalar_l/subtalar_angle_l/speed	/forceset/tau_hip_flexion_l	/forceset/tau_hip_adduction_l	/forceset/tau_hip_rotation_l	/forceset/tau_knee_flexion_l	/forceset/tau_ankle_angle_l	/forceset/tau_subtalar_angle_l	/forceset/tau_lumbar_extension	lambda_cid13_p0	lambda_cid13_p1	lambda_cid13_p2	lambda_cid13_p3	lambda_cid13_p4	lambda_cid13_p5	lambda_cid14_p0	/jointset/ground_pelvis/pelvis_tilt/accel	/jointset/ground_pelvis/pelvis_tx/accel	/jointset/ground_pelvis/pelvis_ty/accel	/jointset/hip_l/hip_flexion_l/accel	/jointset/hip_l/hip_adduction_l/accel	/jointset/hip_l/hip_rotation_l/accel	/jointset/back/lumbar_extension/accel	/jointset/patellofemoral_l/patellar_flexion_l/accel	/jointset/knee_l/knee_flexion_l/accel	/jointset/knee_l/knee_adduction_l/accel	/jointset/knee_l/knee_rotation_l/accel	/jointset/ankle_l/ankle_angle_l/accel	/jointset/subtalar_l/subtalar_angle_l/accel	gamma_cid13_p0	gamma_cid13_p1	gamma_cid13_p2	gamma_cid13_p3	gamma_cid13_p4	gamma_cid13_p5	gamma_cid14_p0
0.5	-0.3281350095789605	-0.02778554992188717	0.768091299357416	1.154936482566997	-0.3050906235647183	0.008873880464545051	-0.3211368137182383	0.8122643307614243	0.8122643307614499	-0.1733654040989016	0.1676092445683937	0.1669248207554213	-0.0188269442675096	-0.4202522735358294	-0.1597067178063969	-0.5039450312235386	2.09840702407837	0.01136520167379208	0.7039307051590155	-0.6276453255636441	2.108622241717031	2.108622241717016	-0.00635383772148925	0.0406003119335223	0.554730207737601	0.1044209327660948	-0.1827304358207512	0.01728585643751545	-0.02646375061895009	-0.2591500458102736	0.09975257485637637	0.03965639452419808	0.1831304918573693	-5.975820936270718	-19.02128634600757	5.879582575099822	-2.009551577665871	-603.8276715055126	-61.21011333256813	-20.78672841910958	0.4728636365851026	0.5400869663985258	-0.4410063779779218	-1.257301834411962	0.6880159858650771	-0.363058177260727	1.580061533423483	-1.316549010523514	-1.316549010523508	0.05211729259791056	-0.08546557033240451	-0.5517822922497854	0.7139316045565167	-4.230076207811579e-07	-4.232307784656554e-07	2.619965101233572e-06	2.864871903077378e-07	-4.987835763481402e-07	-3.013673950628846e-07	-4.082091689486767e-07
0.51	-0.3323130357790366	-0.02935542845483125	0.7630308632239431	1.17585424200299	-0.30494405424651	0.01589629167726814	-0.327333956494768	0.8332812805255332	0.8332812805255547	-0.1734299383081523	0.1680105412639961	0.1724431695371486	-0.01774877267340425	-0.415304187926006	-0.1542562444901867	-0.5080352520991912	2.084871251114024	0.01792077002752417	0.7004647686668669	-0.6117166633935512	2.094483103541755	2.094483103541573	-0.006548148724140967	0.03965790969373841	0.5488499228909879	0.1111874521896735	-0.188745904757121	0.01765678215855549	-0.02653773745069507	-0.2621419707190594	0.09828042440785041	0.0396854649278928	0.188189348584957	-6.675001268070312	-18.81297989491507	5.733849381940378	-1.769687622067498	-608.0827487445835	-60.87773588714884	-19.49868150873927	0.5130637863277172	0.5494957002922831	-0.3770842916733977	-1.442803007686293	0.634797074141915	-0.351726985343819	1.609253511126792	-1.505208300159754	-1.505208300184938	-0.05444483074030868	-0.09929903522531773	-0.6195780826336532	0.65388147709808	-3.914806392917357e-07	-3.329588730908457e-07	2.50216281346795e-06	2.803959064291592e-07	-4.649234054747698e-07	-2.104846222841284e-07	-3.837438257710763e-07
0.52	-0.3364401245703854	-0.03087040861740122	0.7579327140118506	1.196628426113291	-0.3047328352819618	0.02288137040503992	-0.3333698156591319	0.8541483164920632	0.8541483164920789	-0.1734962635342377	0.1684022796403167	0.1779000301700564	-0.01660376201189521	-0.4100647917903117	-0.1487270437315762	-0.5114876469474257	2.06969195894006	0.02429513094184188	0.6964642081686424	-0.5953886031304734	2.078639482201272	2.078639482200921	-0.006712041088536206	0.03868864807699658	0.5424325779737115	0.1177887462468336	-0.1947613736934894	0.01802770787959691	-0.02661172428243566	-0.2651338956278455	0.09680827395932469	0.03971453533158917	0.1932482053125457	-7.379467371707218	-18.60517685644539	5.589830551833533	-1.544308741311363	-612.4431613275621	-60.62792466739408	-18.20952015812221	0.5311257417592817	0.5558324548785541	-0.313441172494321	-1.586005676335647	0.6517744979822016	-0.469982978475904	1.659941152020486	-1.657445643565192	-1.657445643565189	0.05820102024920632	-0.09083744572399209	-0.6591943063824579	0.6808865312727707	-3.622508103324548e-07	-2.486607886587567e-07	2.389785023376368e-06	2.757179915560128e-07	-4.359263954428486e-07	-1.263658719151709e-07	-3.604429735499566e-07
0.53	-0.3405134598937826	-0.03232975893438887	0.7528032733769586	1.217242803619922	-0.3044586736558825	0.02982378508970493	-0.3392404233722456	0.8748485675580863	0.8748485675581478	-0.1735638019569188	0.1687841541033898	0.183290169034606	-0.01539344650025908	-0.4045572619212144	-0.1431349059081095	-0.5142886962643594	2.052915675640297	0.03050346341045961	0.6919352592965459	-0.5786742279093058	2.061133986563208	2.061133986562834	-0.006792458846651398	0.03768477841450482	0.5355128957846308	0.124241252668205	-0.2007231410555464	0.01825605305648686	-0.02661711095018994	-0.2681507836986304	0.09533958374230068	0.0396188185961012	0.1982419615624162	-8.089785385501401	-18.33530668502789	5.428093202866085	-1.275046587016505	-616.84421361376	-60.3068917817824	-16.92236225968723	0.5672911239188069	0.5621761619166669	-0.2467533854346456	-1.763657708869738	0.5999747043379094	-0.4571741510128368	1.685992444619568	-1.838543549114067	-1.838543549117563	-0.04064799985779444	-0.1058433229924603	-0.7206779843387867	0.6222258504041573	-3.332662067548497e-07	-1.594354492593796e-07	2.278620547380172e-06	2.719079716816938e-07	-4.076612932470969e-07	-4.382246750093935e-08	-3.367381687072352e-07
